<?xml version="1.0" standalone="no"?>
<!DOCTYPE svg PUBLIC "-//W3C//DTD SVG 20010904//EN"
 "http://www.w3.org/TR/2001/REC-SVG-20010904/DTD/svg10.dtd">
<svg version="1.0" xmlns="http://www.w3.org/2000/svg"
 width="8000.000000pt" height="2166.000000pt" viewBox="0 0 8000.000000 2166.000000"
 preserveAspectRatio="xMidYMid meet">

<g transform="translate(0.000000,2166.000000) scale(0.100000,-0.100000)"
fill="#000000" stroke="none">
<path d="M5494 21650 c-139 -25 -266 -92 -369 -195 -80 -80 -124 -151 -163
-257 l-27 -73 -3 -925 c-3 -1040 -5 -1001 71 -1153 55 -111 179 -236 287 -290
246 -122 519 -98 736 66 105 80 185 194 232 332 l27 80 3 895 c3 967 2 979
-51 1105 -81 193 -260 349 -456 400 -79 20 -218 27 -287 15z"/>
<path d="M7926 19124 c-255 -57 -453 -249 -517 -502 -19 -76 -19 -111 -17
-998 l3 -919 31 -86 c62 -174 178 -305 339 -385 146 -72 286 -91 443 -58 208
43 378 175 472 369 72 149 71 129 68 1140 l-3 900 -27 80 c-73 215 -234 375
-445 442 -101 32 -249 39 -347 17z"/>
<path d="M10380 16945 c-36 -8 -108 -35 -160 -61 -132 -66 -228 -162 -294
-294 -80 -162 -77 -121 -74 -1153 l3 -912 23 -65 c85 -235 254 -396 483 -457
86 -23 252 -23 339 0 194 52 350 180 441 362 71 145 70 117 67 1138 l-3 912
-31 86 c-74 206 -225 355 -433 426 -95 32 -260 41 -361 18z"/>
<path d="M7892 14760 c-119 -32 -206 -84 -303 -180 -70 -69 -94 -102 -127
-170 -75 -154 -72 -109 -72 -1116 0 -864 1 -904 20 -978 31 -122 82 -209 180
-307 68 -69 101 -94 170 -127 115 -56 185 -73 307 -73 296 -1 546 176 647 460
l31 86 3 907 c3 1026 6 986 -74 1148 -78 157 -215 277 -386 337 -101 36 -288
43 -396 13z"/>
<path d="M42537 13439 c-626 -55 -1196 -318 -1627 -749 -381 -380 -615 -846
-696 -1385 -27 -179 -25 -523 4 -710 42 -270 114 -500 232 -740 240 -489 639
-886 1135 -1130 242 -119 468 -193 717 -234 515 -86 999 -25 1478 186 272 120
551 301 765 495 l49 45 -169 191 c-94 105 -173 191 -176 191 -3 1 -37 -26 -75
-59 -441 -384 -1047 -580 -1602 -519 -712 77 -1311 487 -1613 1104 -330 674
-236 1476 240 2059 32 39 108 119 168 176 508 487 1242 672 1932 489 317 -84
602 -240 868 -476 l82 -73 165 210 c92 115 166 213 166 218 0 12 -148 137
-255 214 -512 372 -1163 553 -1788 497z"/>
<path d="M53700 13439 c-908 -78 -1707 -607 -2093 -1384 -135 -271 -206 -515
-243 -832 -19 -164 -14 -470 11 -628 68 -433 245 -839 515 -1180 96 -121 311
-330 440 -426 390 -292 805 -457 1305 -520 128 -16 491 -16 620 0 789 99 1451
497 1870 1126 274 411 408 861 408 1365 -1 292 -35 509 -125 779 -367 1104
-1484 1806 -2708 1700z m514 -544 c1243 -163 2031 -1379 1645 -2540 -169 -508
-542 -926 -1034 -1161 -195 -93 -415 -156 -635 -184 -109 -13 -381 -13 -490 1
-774 95 -1427 613 -1673 1325 -317 915 103 1914 991 2358 193 96 435 172 646
200 138 19 409 19 550 1z"/>
<path d="M63735 13444 c-554 -46 -1039 -230 -1455 -552 -116 -90 -306 -277
-400 -393 -275 -341 -442 -720 -517 -1174 -26 -156 -25 -571 0 -735 42 -261
113 -483 233 -727 372 -756 1112 -1273 1985 -1387 541 -71 1084 21 1564 263
675 342 1158 954 1319 1672 70 314 77 680 20 994 -151 833 -740 1537 -1554
1858 -195 77 -400 129 -630 162 -111 16 -461 27 -565 19z m470 -549 c579 -76
1094 -394 1419 -875 111 -164 220 -414 270 -615 51 -207 64 -517 32 -725 -68
-438 -263 -813 -583 -1121 -287 -277 -646 -457 -1060 -535 -117 -21 -450 -30
-579 -15 -243 29 -468 95 -682 201 -415 206 -728 519 -923 923 -416 864 -128
1887 685 2431 256 171 567 289 874 331 135 18 407 18 547 0z"/>
<path d="M69620 13439 c-454 -40 -904 -199 -1278 -451 -201 -136 -451 -374
-596 -568 -244 -327 -402 -708 -463 -1119 -24 -162 -24 -531 0 -691 59 -384
186 -714 398 -1029 412 -616 1078 -1015 1854 -1112 129 -16 481 -16 610 0 233
29 494 93 725 177 221 81 576 275 752 410 l58 45 0 900 0 899 -250 0 -250 0 0
-748 0 -747 -83 -53 c-255 -160 -564 -278 -872 -333 -170 -31 -521 -33 -680
-6 -598 105 -1082 413 -1398 892 -321 487 -402 1102 -217 1655 279 839 1102
1392 2020 1357 487 -19 961 -196 1339 -501 46 -37 87 -64 91 -59 53 57 310
409 306 419 -3 7 -50 48 -106 91 -549 424 -1267 633 -1960 572z"/>
<path d="M15360 10960 l0 -2481 1568 4 c1125 3 1591 7 1652 15 550 76 915 225
1186 485 193 184 303 377 355 627 28 134 30 358 5 500 -85 476 -404 841 -851
975 -49 15 -97 29 -105 32 -8 3 13 15 50 28 143 50 247 108 369 204 178 140
307 339 368 569 23 85 26 118 27 267 1 148 -2 181 -22 259 -65 246 -205 449
-422 612 -104 79 -344 199 -493 248 -191 62 -409 104 -652 125 -76 7 -653 11
-1577 11 l-1458 0 0 -2480z m2783 1365 c147 -31 243 -100 300 -214 31 -63 32
-70 32 -186 0 -114 -2 -123 -32 -187 -54 -114 -147 -188 -280 -223 -48 -13
-162 -15 -700 -15 l-643 0 0 420 0 420 628 0 c509 0 640 -3 695 -15z m102
-1858 c272 -79 406 -258 367 -490 -31 -183 -157 -312 -367 -374 -54 -16 -125
-18 -742 -21 l-683 -3 0 456 0 456 683 -3 c613 -3 688 -5 742 -21z"/>
<path d="M21040 10960 l0 -2480 735 0 735 0 0 2480 0 2480 -735 0 -735 0 0
-2480z"/>
<path d="M23547 13103 c125 -186 494 -733 820 -1217 l593 -879 -64 -91 c-579
-832 -1686 -2429 -1686 -2432 0 -2 386 -4 858 -4 l857 0 460 705 c253 387 463
705 466 705 3 0 216 -317 473 -705 l468 -705 885 0 c486 0 882 4 879 8 -2 4
-401 587 -884 1296 l-880 1287 333 487 c183 268 547 800 808 1182 l475 695
-861 3 c-824 2 -863 2 -877 -16 -8 -10 -195 -300 -415 -644 -230 -361 -404
-623 -409 -618 -5 5 -189 294 -410 642 l-402 633 -857 3 -858 2 228 -337z"/>
<path d="M30857 13433 c-4 -3 -7 -127 -7 -275 l0 -268 810 0 810 0 0 -2205 0
-2205 280 0 280 0 0 2205 0 2205 813 2 812 3 0 270 0 270 -1896 3 c-1043 1
-1899 -1 -1902 -5z"/>
<path d="M36027 13430 c-109 -19 -208 -102 -244 -203 -17 -50 -18 -151 -18
-2277 l0 -2225 26 -56 c32 -68 82 -120 152 -157 l52 -27 1613 -3 1612 -2 0
270 0 270 -1397 0 c-1098 0 -1403 3 -1423 13 -13 7 -35 28 -47 46 l-23 34 0
803 0 804 1250 0 1250 0 0 270 0 270 -1250 0 -1250 0 0 768 c0 742 1 768 20
799 10 17 29 38 42 45 19 10 284 14 1378 18 l1355 5 0 270 0 270 -1525 1
c-839 1 -1546 -2 -1573 -6z"/>
<path d="M45900 10960 l0 -2480 285 0 285 0 2 1984 3 1985 1481 -1982 1481
-1982 291 -3 292 -2 0 2480 0 2480 -277 -2 -278 -3 -5 -1989 -5 -1989 -1485
1992 -1485 1991 -292 0 -293 0 0 -2480z"/>
<path d="M57860 10960 l0 -2480 1370 0 1370 0 0 270 0 270 -1090 0 -1090 0 0
2210 0 2210 -280 0 -280 0 0 -2480z"/>
<path d="M73347 13433 c-4 -3 -7 -1119 -7 -2480 l0 -2473 285 0 285 0 0 2480
0 2480 -278 0 c-153 0 -282 -3 -285 -7z"/>
<path d="M77166 13368 c-172 -380 -2186 -4876 -2186 -4881 0 -4 134 -7 298 -7
l297 0 275 625 275 625 1355 0 1355 0 275 -625 274 -625 308 0 307 0 -35 78
c-19 42 -517 1157 -1107 2477 l-1073 2400 -293 3 -292 2 -33 -72z m873 -1848
l550 -1235 -1106 -3 c-609 -1 -1108 -1 -1109 1 -2 2 240 556 537 1233 297 676
545 1240 551 1254 10 24 10 24 18 5 5 -11 256 -576 559 -1255z"/>
<path d="M5530 12260 c-236 -27 -434 -169 -535 -382 -68 -144 -65 -96 -65
-1103 0 -1014 -3 -962 69 -1110 90 -182 260 -317 457 -360 104 -24 273 -17
364 14 206 70 365 233 438 446 l27 80 0 920 c0 1023 4 967 -70 1120 -124 257
-398 407 -685 375z"/>
<path d="M7988 9849 c-153 -17 -280 -80 -398 -199 -98 -97 -149 -184 -180
-306 -19 -74 -20 -114 -20 -978 0 -1007 -3 -962 72 -1116 33 -68 57 -101 127
-170 148 -148 300 -207 514 -198 185 8 312 64 448 198 61 61 85 94 123 170 80
162 77 122 74 1148 l-3 907 -31 86 c-110 309 -402 493 -726 458z"/>
<path d="M10405 7666 c-250 -48 -435 -212 -526 -466 l-24 -65 -3 -912 c-3
-1032 -6 -991 74 -1153 118 -238 365 -381 638 -368 281 14 514 188 610 457
l31 86 3 912 c3 1021 4 993 -67 1138 -114 229 -323 366 -581 380 -50 3 -114
-1 -155 -9z"/>
<path d="M7920 5484 c-94 -20 -234 -92 -307 -159 -80 -72 -149 -176 -187 -284
l-31 -86 -3 -919 c-2 -887 -2 -922 17 -998 97 -382 491 -603 865 -484 210 66
371 227 444 441 l27 80 3 900 c2 796 1 909 -13 980 -20 98 -67 200 -129 282
-152 201 -432 302 -686 247z"/>
<path d="M5440 2960 c-127 -33 -214 -84 -311 -180 -67 -66 -94 -103 -126 -167
-76 -152 -74 -113 -71 -1153 l3 -925 27 -73 c38 -106 83 -177 163 -257 82 -82
169 -135 280 -172 102 -33 271 -37 375 -9 201 55 376 209 457 401 53 126 54
138 51 1105 l-3 895 -27 80 c-64 189 -186 327 -363 411 -135 65 -309 81 -455
44z"/>
</g>
</svg>
