<?xml version="1.0" standalone="no"?>
<!DOCTYPE svg PUBLIC "-//W3C//DTD SVG 20010904//EN"
 "http://www.w3.org/TR/2001/REC-SVG-20010904/DTD/svg10.dtd">
<svg version="1.0" xmlns="http://www.w3.org/2000/svg"
 width="1523.000000pt" height="871.000000pt" viewBox="0 0 1523.000000 871.000000"
 preserveAspectRatio="xMidYMid meet">

<g transform="translate(0.000000,871.000000) scale(0.100000,-0.100000)"
fill="#000000" stroke="none">
<path d="M2183 8701 c-90 -23 -169 -102 -194 -194 -6 -23 -9 -182 -7 -420 3
-370 4 -383 25 -423 26 -49 92 -111 142 -131 20 -9 65 -16 101 -16 111 0 198
52 244 145 l26 52 0 395 c0 436 0 432 -65 509 -56 66 -184 105 -272 83z"/>
<path d="M3122 7809 c-58 -29 -100 -73 -128 -134 -24 -50 -24 -53 -24 -431 0
-417 2 -436 59 -505 16 -19 53 -48 82 -64 46 -26 65 -30 129 -30 65 0 83 4
130 30 61 34 114 97 130 155 7 26 10 176 8 427 -3 360 -4 391 -22 427 -26 52
-79 104 -130 127 -60 27 -177 26 -234 -2z"/>
<path d="M4120 6800 c-61 -29 -108 -75 -136 -135 -24 -50 -24 -51 -24 -440 0
-388 0 -390 24 -440 28 -61 87 -116 149 -140 70 -26 172 -17 234 21 56 35 108
99 123 152 13 50 13 764 0 814 -15 53 -67 117 -123 152 -65 40 -179 47 -247
16z"/>
<path d="M3125 5966 c-60 -28 -116 -87 -139 -147 -15 -39 -17 -88 -14 -439 l3
-395 27 -47 c57 -96 151 -145 262 -136 100 8 181 64 222 153 24 50 24 52 24
440 0 389 0 390 -24 440 -64 135 -226 194 -361 131z"/>
<path d="M2167 4966 c-90 -33 -151 -95 -177 -182 -8 -27 -10 -154 -8 -424 3
-373 4 -386 25 -426 52 -98 146 -149 265 -143 63 4 81 9 125 37 32 20 65 53
85 85 l33 52 3 402 c3 394 2 404 -19 453 -53 123 -207 190 -332 146z"/>
<path d="M3173 4091 c-49 -13 -120 -58 -147 -94 -54 -71 -56 -88 -56 -502 l0
-382 30 -60 c49 -98 128 -146 240 -146 108 0 199 55 246 149 18 36 19 67 22
427 2 251 -1 401 -8 427 -34 125 -196 215 -327 181z"/>
<path d="M4114 3061 c-51 -23 -104 -75 -130 -127 -18 -36 -19 -67 -22 -438
l-3 -399 26 -53 c105 -214 426 -196 500 27 14 40 15 105 13 435 -3 378 -4 390
-25 430 -26 49 -90 108 -139 129 -52 21 -168 19 -220 -4z"/>
<path d="M3130 2189 c-60 -27 -107 -74 -136 -134 -24 -50 -24 -51 -24 -430 0
-231 4 -395 10 -417 15 -53 68 -118 125 -153 44 -27 56 -30 134 -30 69 0 94 5
126 22 53 28 99 78 124 133 20 43 21 64 21 435 0 390 0 390 -24 440 -47 99
-135 155 -246 155 -44 0 -80 -7 -110 -21z"/>
<path d="M2174 1189 c-67 -19 -127 -71 -162 -138 l-33 -64 3 -396 c3 -384 4
-397 25 -436 51 -95 136 -145 246 -145 89 0 160 31 207 90 60 76 60 73 60 502
0 392 0 393 -24 444 -54 116 -197 179 -322 143z"/>
</g>
</svg>
