<?xml version="1.0" standalone="no"?>
<!DOCTYPE svg PUBLIC "-//W3C//DTD SVG 20010904//EN"
 "http://www.w3.org/TR/2001/REC-SVG-20010904/DTD/svg10.dtd">
<svg version="1.0" xmlns="http://www.w3.org/2000/svg"
 width="1328.000000pt" height="573.000000pt" viewBox="0 0 1328.000000 573.000000"
 preserveAspectRatio="xMidYMid meet">

<g transform="translate(0.000000,573.000000) scale(0.100000,-0.100000)"
fill="#000000" stroke="none">
<path d="M1423 5719 c-44 -13 -100 -70 -112 -116 -15 -54 -14 -485 1 -536 35
-115 186 -161 282 -86 15 11 35 38 46 60 18 35 20 59 20 294 0 231 -2 259 -19
293 -43 83 -125 118 -218 91z"/>
<path d="M2045 5131 c-85 -52 -94 -86 -94 -361 0 -124 4 -243 9 -264 30 -132
194 -181 294 -88 53 50 56 69 56 345 0 242 -1 255 -22 297 -30 59 -84 90 -158
90 -36 0 -65 -6 -85 -19z"/>
<path d="M2725 4477 c-47 -19 -71 -39 -97 -82 -23 -39 -23 -45 -23 -300 0
-258 0 -260 25 -303 34 -60 81 -87 150 -86 66 0 109 21 147 71 l28 36 0 282 0
282 -28 36 c-15 20 -41 44 -57 52 -41 21 -109 27 -145 12z"/>
<path d="M2050 3921 c-90 -48 -99 -81 -100 -366 0 -247 6 -286 47 -336 78 -93
240 -74 292 34 20 41 21 60 21 299 0 247 -1 256 -23 298 -42 81 -155 114 -237
71z"/>
<path d="M1395 3252 c-86 -55 -94 -86 -95 -367 0 -129 5 -246 10 -267 33 -117
184 -166 278 -91 70 56 72 67 72 353 0 286 -6 314 -71 361 -46 33 -151 39
-194 11z"/>
<path d="M2044 2672 c-42 -27 -72 -67 -85 -115 -7 -25 -9 -129 -7 -282 l3
-242 28 -42 c61 -92 190 -108 271 -33 53 50 56 69 56 347 0 235 -2 259 -20
295 -30 59 -73 84 -150 88 -51 2 -72 -1 -96 -16z"/>
<path d="M2729 2020 c-45 -13 -79 -42 -102 -84 -21 -39 -22 -53 -22 -301 0
-255 0 -261 24 -301 31 -55 90 -88 156 -88 61 0 105 22 142 71 l28 36 3 256
c2 141 0 270 -3 288 -16 89 -132 152 -226 123z"/>
<path d="M2045 1431 c-85 -52 -94 -86 -94 -361 0 -124 4 -243 9 -264 30 -132
194 -181 294 -88 53 50 56 69 56 345 0 246 -1 255 -23 298 -31 59 -84 89 -157
89 -36 0 -65 -6 -85 -19z"/>
<path d="M1427 778 c-51 -14 -101 -65 -116 -119 -9 -31 -11 -117 -9 -289 3
-235 4 -246 26 -282 74 -119 249 -112 312 13 18 35 20 59 20 294 0 231 -2 259
-19 293 -24 47 -50 70 -98 88 -44 15 -64 16 -116 2z"/>
</g>
</svg>
