<?xml version="1.0" encoding="UTF-8"?>
<!-- Generator: visioncortex VTracer 0.6.3 -->
<svg version="1.1" xmlns="http://www.w3.org/2000/svg" width="1280" height="1048">
<path d="M0 0 C0.7 0.04 1.4 0.08 2.11 0.12 C6.77 0.41 6.77 0.41 9.01 1.54 C11.62 1.82 14.21 2.05 16.82 2.25 C17.6 2.32 18.37 2.38 19.16 2.44 C22.47 2.71 25.78 2.97 29.09 3.23 C31.5 3.42 33.91 3.62 36.32 3.82 C37.46 3.9 37.46 3.9 38.61 3.99 C43.89 4.42 43.89 4.42 45.01 5.54 C46.51 5.58 48.01 5.57 49.51 5.54 C51.01 5.5 52.51 5.49 54.01 5.54 C54.34 5.87 54.67 6.2 55.01 6.54 C56.16 6.54 57.32 6.54 58.51 6.54 C59.66 6.54 60.82 6.54 62.01 6.54 C62.34 6.87 62.67 7.2 63.01 7.54 C64.12 7.54 65.24 7.54 66.38 7.54 C70.01 7.54 70.01 7.54 73.01 8.54 C74.33 8.79 75.66 9.01 76.99 9.22 C78.15 9.4 78.15 9.4 79.33 9.59 C80.93 9.84 82.54 10.09 84.14 10.34 C87.7 10.91 91.06 11.55 94.52 12.57 C97.25 13.32 99.43 13.72 102.2 13.97 C106.75 14.44 111.01 15.41 115.42 16.61 C116.19 16.82 116.96 17.02 117.75 17.23 C119.37 17.67 121 18.11 122.62 18.55 C125.04 19.21 127.46 19.86 129.89 20.5 C144.07 24.31 157.66 29.09 170.88 35.54 C171.78 35.97 172.67 36.4 173.6 36.85 C183.7 41.78 192.38 47.31 201.01 54.54 C201.69 55.05 202.36 55.57 203.06 56.11 C222.36 71.49 227.95 96.97 230.8 120.28 C231.18 124.44 231.15 128.6 231.14 132.77 C231.14 133.73 231.14 134.7 231.14 135.69 C231.14 137.71 231.14 139.74 231.14 141.76 C231.13 144.83 231.14 147.9 231.14 150.96 C231.14 152.94 231.14 154.92 231.14 156.9 C231.14 157.8 231.14 158.7 231.15 159.63 C231.11 168.57 230.39 177.25 228.52 186 C227.99 188.64 227.57 191.29 227.18 193.96 C222.13 228.72 213.25 265.19 198.09 297.05 C196.68 300.27 195.74 303.55 194.88 306.95 C193.9 309.85 192.57 312.48 191.18 315.2 C189.38 318.79 187.75 322.45 186.1 326.11 C181.73 335.8 177.23 345.28 172.01 354.54 C171.03 356.37 170.05 358.2 169.07 360.04 C166.14 365.42 162.92 370.6 159.64 375.79 C157.91 378.48 157.91 378.48 157.01 381.54 C156.35 381.54 155.69 381.54 155.01 381.54 C154.65 382.82 154.65 382.82 154.28 384.13 C152.89 387.85 150.96 390.8 148.63 393.97 C146.27 397.25 144.1 400.36 142.14 403.9 C139.64 408.38 136.45 412.28 133.26 416.29 C129.32 421.28 125.42 426.27 121.76 431.47 C118.36 436.21 114.58 440.48 110.6 444.73 C108.69 446.8 106.85 448.89 105.03 451.03 C100.12 456.65 94.83 461.9 89.55 467.18 C87.77 468.96 86 470.75 84.23 472.54 C78.15 478.65 72.01 484.41 65.22 489.75 C63.35 491.26 61.7 492.83 60.01 494.54 C59.27 494.97 58.54 495.41 57.79 495.87 C54.87 497.62 52.27 499.58 49.59 501.66 C42.7 506.99 35.77 511.61 28.13 515.79 C25.33 517.35 22.71 519.02 20.07 520.85 C16.52 523.27 13.02 524.95 9.01 526.54 C7.4 527.28 5.8 528.03 4.2 528.79 C-16.53 538.13 -38.26 545.32 -61.03 547.25 C-63.92 547.35 -63.92 547.35 -65.99 548.54 C-68.84 548.65 -71.67 548.7 -74.52 548.7 C-75.37 548.71 -76.23 548.71 -77.11 548.71 C-78.93 548.72 -80.75 548.72 -82.57 548.72 C-85.32 548.72 -88.07 548.74 -90.82 548.76 C-100.08 548.79 -108.89 548.51 -117.99 546.54 C-119.19 546.32 -120.4 546.11 -121.64 545.89 C-129.45 544.39 -137.16 542.56 -144.87 540.6 C-145.83 540.36 -146.79 540.12 -147.78 539.87 C-153.09 538.49 -158.01 536.82 -162.97 534.47 C-165.13 533.47 -167.32 532.62 -169.55 531.79 C-176.93 528.86 -183.95 525.17 -190.99 521.54 C-192.03 521 -192.03 521 -193.1 520.45 C-195.13 519.4 -197.16 518.35 -199.18 517.29 C-199.79 516.97 -200.4 516.65 -201.03 516.33 C-204.69 514.38 -207.79 512.14 -210.99 509.54 C-212.15 509 -213.3 508.46 -214.49 507.91 C-220.35 505.1 -225.26 500.85 -230.33 496.84 C-232.89 494.84 -235.5 492.91 -238.12 490.97 C-246.85 484.42 -255.02 477.69 -262.66 469.88 C-264.72 467.8 -266.83 465.87 -269.05 463.97 C-275.58 458.37 -281.52 452.22 -287.12 445.69 C-289.32 443.15 -291.59 440.69 -293.87 438.22 C-302.47 428.77 -310.25 418.7 -317.99 408.54 C-318.64 407.7 -319.29 406.86 -319.96 406 C-320.78 404.94 -320.78 404.94 -321.62 403.85 C-322.32 402.94 -322.32 402.94 -323.03 402.02 C-323.99 400.54 -323.99 400.54 -323.99 398.54 C-324.65 398.54 -325.31 398.54 -325.99 398.54 C-327.07 397.1 -327.07 397.1 -328.24 395.1 C-331.6 389.5 -335.24 384.12 -338.9 378.72 C-341.16 375.28 -343.27 371.77 -345.37 368.22 C-347.84 364.05 -350.34 359.95 -353.12 355.97 C-355.87 351.92 -358.03 347.64 -360.18 343.24 C-362.11 339.27 -364.13 335.38 -366.23 331.5 C-373.4 318.25 -379.46 304.54 -384.99 290.54 C-385.6 289.03 -386.2 287.53 -386.8 286.04 C-387.53 284.2 -388.26 282.37 -388.99 280.54 C-389.38 279.58 -389.38 279.58 -389.77 278.6 C-394 268.04 -397.84 257.47 -400.99 246.54 C-401.23 245.71 -401.47 244.87 -401.72 244.02 C-406.64 226.96 -410.57 209.86 -412.6 192.21 C-412.71 189.62 -412.71 189.62 -413.99 188.54 C-419.25 158.07 -420.66 115.23 -407.08 86.93 C-405.79 84.08 -404.79 81.17 -403.74 78.22 C-401.1 71.26 -397.28 65.57 -392.99 59.54 C-391.39 57.09 -389.8 54.64 -388.22 52.18 C-386.99 50.54 -386.99 50.54 -384.99 49.54 C-384.53 48.77 -384.07 48 -383.6 47.21 C-375.37 33.52 -357 28.76 -342.49 24.85 C-341.81 24.66 -341.12 24.47 -340.41 24.27 C-328.9 21.09 -317.35 18.63 -305.5 16.99 C-302.79 16.53 -302.79 16.53 -299.39 15.58 C-294.31 14.29 -289.19 13.69 -284 13.06 C-282.97 12.93 -281.95 12.81 -280.89 12.67 C-277.63 12.27 -274.37 11.87 -271.12 11.47 C-267.84 11.07 -264.56 10.67 -261.28 10.26 C-259.25 10.01 -257.21 9.76 -255.18 9.51 C-254.26 9.4 -253.35 9.28 -252.41 9.17 C-251.6 9.07 -250.79 8.97 -249.96 8.87 C-247.92 8.62 -247.92 8.62 -245.99 7.54 C-243.01 7.19 -240.04 6.89 -237.04 6.63 C-235.67 6.51 -235.67 6.51 -234.28 6.38 C-231.29 6.12 -228.3 5.86 -225.3 5.6 C-224.29 5.51 -223.28 5.42 -222.24 5.33 C-207.81 4.05 -193.38 2.94 -178.91 2.13 C-177.75 2.06 -176.58 2 -175.39 1.93 C-174.38 1.88 -173.38 1.82 -172.35 1.77 C-169.97 1.68 -169.97 1.68 -167.99 0.54 C-165.14 0.3 -162.31 0.13 -159.45 0 C-158.54 -0.04 -157.63 -0.09 -156.69 -0.13 C-153.58 -0.27 -150.48 -0.4 -147.37 -0.53 C-145.73 -0.59 -145.73 -0.59 -144.07 -0.66 C-96.18 -2.53 -47.86 -2.74 0 0 Z M-116.99 -0.46 C-112.99 0.54 -112.99 0.54 -112.99 0.54 Z M-41.99 -0.46 C-41.99 -0.13 -41.99 0.2 -41.99 0.54 C-40.34 0.54 -38.69 0.54 -36.99 0.54 C-36.99 0.21 -36.99 -0.12 -36.99 -0.46 C-38.64 -0.46 -40.29 -0.46 -41.99 -0.46 Z M-147.99 0.54 C-143.99 1.54 -143.99 1.54 -143.99 1.54 Z M-167.99 1.54 C-163.99 2.54 -163.99 2.54 -163.99 2.54 Z " fill="#F9FCFE" transform="translate(637.9921875,499.46484375)"/>
<path d="M0 0 C0.68 -0.01 1.35 -0.02 2.05 -0.04 C7.88 -0 12.5 1.46 17.17 4.95 C23.21 11.11 25.2 15.7 25.56 24.31 C25.38 31.91 23.54 35.92 18.24 41.19 C13.61 45.38 13.61 45.38 11.06 45.38 C11.39 74.75 11.72 104.12 12.06 134.38 C22.62 134.4 33.18 134.43 44.05 134.45 C77.8 134.53 111.54 134.62 145.29 134.71 C150.53 134.72 155.77 134.73 161.01 134.75 C162.05 134.75 163.09 134.75 164.17 134.76 C181.07 134.8 197.98 134.84 214.88 134.88 C232.22 134.92 249.55 134.96 266.89 135.01 C277.59 135.04 288.3 135.07 299 135.09 C306.33 135.11 313.66 135.13 321 135.15 C325.23 135.16 329.47 135.17 333.7 135.18 C337.57 135.18 341.45 135.2 345.32 135.21 C346.73 135.21 348.13 135.22 349.54 135.22 C351.44 135.22 353.34 135.23 355.24 135.24 C356.3 135.24 357.36 135.24 358.45 135.24 C361.06 135.38 361.06 135.38 364.06 136.38 C365.61 136.63 365.61 136.63 367.18 136.88 C387.56 140.23 401.83 152.52 414.59 168.25 C421.51 178.11 425.16 191.99 425.28 203.86 C425.3 204.98 425.3 204.98 425.32 206.12 C425.36 208.62 425.38 211.12 425.41 213.61 C425.44 215.41 425.46 217.2 425.49 219 C425.56 224.89 425.63 230.79 425.69 236.69 C425.7 238.19 425.7 238.19 425.72 239.73 C426.08 272.62 426.1 305.5 425.78 338.38 C425.75 341.56 425.72 344.73 425.7 347.91 C425.66 352.92 425.6 357.93 425.54 362.93 C425.52 364.77 425.5 366.61 425.49 368.45 C425.47 370.96 425.43 373.48 425.4 376 C425.39 376.72 425.39 377.44 425.39 378.19 C425.05 396.33 416.4 411.73 404.19 424.62 C389.61 438.48 374.24 443.71 354.45 443.63 C353.21 443.63 351.96 443.64 350.69 443.64 C347.25 443.65 343.81 443.64 340.37 443.64 C336.63 443.63 332.89 443.64 329.14 443.65 C322.59 443.66 316.03 443.66 309.47 443.65 C299.72 443.65 289.97 443.65 280.22 443.66 C261.79 443.68 243.36 443.68 224.93 443.68 C210.7 443.68 196.47 443.68 182.24 443.68 C180.19 443.68 178.15 443.68 176.1 443.68 C173.02 443.68 169.94 443.69 166.86 443.69 C138.22 443.69 109.57 443.7 80.93 443.69 C79.85 443.69 78.77 443.69 77.66 443.69 C72.19 443.69 66.71 443.69 61.24 443.69 C60.15 443.69 59.07 443.69 57.95 443.69 C55.75 443.69 53.55 443.69 51.35 443.69 C17.15 443.68 -17.06 443.69 -51.26 443.71 C-89.69 443.73 -128.12 443.74 -166.55 443.74 C-170.65 443.74 -174.75 443.74 -178.84 443.74 C-180.36 443.74 -180.36 443.74 -181.9 443.74 C-197.13 443.74 -212.36 443.74 -227.6 443.75 C-244.92 443.77 -262.24 443.77 -279.56 443.75 C-289.25 443.75 -298.95 443.75 -308.64 443.76 C-315.12 443.77 -321.59 443.77 -328.07 443.76 C-331.76 443.75 -335.45 443.75 -339.14 443.76 C-343.12 443.77 -347.09 443.76 -351.07 443.75 C-352.21 443.76 -353.35 443.76 -354.52 443.77 C-369.65 443.67 -381.7 438.91 -393.94 430.38 C-395.01 429.69 -396.08 429.01 -397.19 428.31 C-408.75 420.17 -418.98 404.27 -421.71 390.48 C-422.05 388.02 -422.36 385.55 -422.61 383.08 C-422.64 380.46 -422.64 380.46 -423.94 379.38 C-424.04 377.11 -424.08 374.84 -424.08 372.57 C-424.09 371.85 -424.09 371.13 -424.1 370.39 C-424.11 367.96 -424.11 365.53 -424.11 363.1 C-424.12 361.36 -424.13 359.63 -424.13 357.89 C-424.16 352.17 -424.17 346.44 -424.18 340.72 C-424.18 338.75 -424.18 336.77 -424.19 334.8 C-424.21 325.52 -424.22 316.24 -424.23 306.96 C-424.24 296.28 -424.27 285.59 -424.31 274.9 C-424.34 266.63 -424.35 258.36 -424.35 250.09 C-424.36 245.16 -424.37 240.22 -424.39 235.29 C-424.41 230.64 -424.42 225.98 -424.41 221.33 C-424.41 219.63 -424.41 217.93 -424.43 216.24 C-424.54 202.14 -423.14 187.67 -416.25 175.06 C-415.91 174.41 -415.56 173.76 -415.21 173.09 C-405.73 155.69 -391.91 144.29 -372.94 138.38 C-363.21 135.79 -354.04 134.95 -344 135.01 C-342.55 135.01 -341.1 135.01 -339.65 135.01 C-335.7 135 -331.75 135.01 -327.81 135.03 C-323.53 135.04 -319.26 135.04 -314.99 135.03 C-307.6 135.03 -300.21 135.04 -292.82 135.06 C-282.14 135.08 -271.46 135.09 -260.78 135.09 C-243.44 135.1 -226.11 135.12 -208.77 135.15 C-191.94 135.18 -175.11 135.2 -158.28 135.21 C-156.72 135.21 -156.72 135.21 -155.13 135.21 C-149.92 135.22 -144.71 135.22 -139.49 135.22 C-96.31 135.26 -53.12 135.31 -9.94 135.38 C-10.27 105.34 -10.6 75.31 -10.94 44.38 C-12.26 43.72 -13.58 43.05 -14.94 42.38 C-16.82 40.32 -16.82 40.32 -18.62 37.94 C-19.23 37.16 -19.83 36.37 -20.45 35.57 C-24.13 30.15 -23.35 23.66 -22.94 17.38 C-21.77 11.88 -18.11 7.05 -13.94 3.38 C-9.31 0.5 -5.35 -0.09 0 0 Z M-8.94 47.38 C-8.94 76.75 -8.94 106.12 -8.94 136.38 C-8.61 136.38 -8.28 136.38 -7.94 136.38 C-7.94 107 -7.94 77.63 -7.94 47.38 C-8.27 47.38 -8.6 47.38 -8.94 47.38 Z " fill="#0E065A" transform="translate(550.9375,-0.375)"/>
<path d="M0 0 C0.68 -0.01 1.35 -0.02 2.05 -0.04 C7.88 -0 12.5 1.46 17.17 4.95 C23.21 11.11 25.2 15.7 25.56 24.31 C25.38 31.91 23.54 35.92 18.24 41.19 C13.61 45.38 13.61 45.38 11.06 45.38 C11.39 74.75 11.72 104.12 12.06 134.38 C22.62 134.4 33.18 134.43 44.05 134.45 C77.8 134.53 111.54 134.62 145.29 134.71 C150.53 134.72 155.77 134.73 161.01 134.75 C162.05 134.75 163.09 134.75 164.17 134.76 C181.07 134.8 197.98 134.84 214.88 134.88 C232.22 134.92 249.55 134.96 266.89 135.01 C277.59 135.04 288.3 135.07 299 135.09 C306.33 135.11 313.66 135.13 321 135.15 C325.23 135.16 329.47 135.17 333.7 135.18 C337.57 135.18 341.45 135.2 345.32 135.21 C346.73 135.21 348.13 135.22 349.54 135.22 C351.44 135.22 353.34 135.23 355.24 135.24 C356.3 135.24 357.36 135.24 358.45 135.24 C361.06 135.38 361.06 135.38 364.06 136.38 C365.61 136.63 365.61 136.63 367.18 136.88 C387.56 140.23 401.83 152.52 414.59 168.25 C421.51 178.11 425.16 191.99 425.28 203.86 C425.3 204.98 425.3 204.98 425.32 206.12 C425.36 208.62 425.38 211.12 425.41 213.61 C425.44 215.41 425.46 217.2 425.49 219 C425.56 224.89 425.63 230.79 425.69 236.69 C425.7 238.19 425.7 238.19 425.72 239.73 C426.08 272.62 426.1 305.5 425.78 338.38 C425.75 341.56 425.72 344.73 425.7 347.91 C425.66 352.92 425.6 357.93 425.54 362.93 C425.52 364.77 425.5 366.61 425.49 368.45 C425.47 370.96 425.43 373.48 425.4 376 C425.39 376.72 425.39 377.44 425.39 378.19 C425.05 396.33 416.4 411.73 404.19 424.62 C389.61 438.48 374.24 443.71 354.45 443.63 C353.21 443.63 351.96 443.64 350.69 443.64 C347.25 443.65 343.81 443.64 340.37 443.64 C336.63 443.63 332.89 443.64 329.14 443.65 C322.59 443.66 316.03 443.66 309.47 443.65 C299.72 443.65 289.97 443.65 280.22 443.66 C261.79 443.68 243.36 443.68 224.93 443.68 C210.7 443.68 196.47 443.68 182.24 443.68 C180.19 443.68 178.15 443.68 176.1 443.68 C173.02 443.68 169.94 443.69 166.86 443.69 C138.22 443.69 109.57 443.7 80.93 443.69 C79.85 443.69 78.77 443.69 77.66 443.69 C72.19 443.69 66.71 443.69 61.24 443.69 C60.15 443.69 59.07 443.69 57.95 443.69 C55.75 443.69 53.55 443.69 51.35 443.69 C17.15 443.68 -17.06 443.69 -51.26 443.71 C-89.69 443.73 -128.12 443.74 -166.55 443.74 C-170.65 443.74 -174.75 443.74 -178.84 443.74 C-180.36 443.74 -180.36 443.74 -181.9 443.74 C-197.13 443.74 -212.36 443.74 -227.6 443.75 C-244.92 443.77 -262.24 443.77 -279.56 443.75 C-289.25 443.75 -298.95 443.75 -308.64 443.76 C-315.12 443.77 -321.59 443.77 -328.07 443.76 C-331.76 443.75 -335.45 443.75 -339.14 443.76 C-343.12 443.77 -347.09 443.76 -351.07 443.75 C-352.21 443.76 -353.35 443.76 -354.52 443.77 C-369.65 443.67 -381.7 438.91 -393.94 430.38 C-395.01 429.69 -396.08 429.01 -397.19 428.31 C-408.75 420.17 -418.98 404.27 -421.71 390.48 C-422.05 388.02 -422.36 385.55 -422.61 383.08 C-422.64 380.46 -422.64 380.46 -423.94 379.38 C-424.04 377.11 -424.08 374.84 -424.08 372.57 C-424.09 371.85 -424.09 371.13 -424.1 370.39 C-424.11 367.96 -424.11 365.53 -424.11 363.1 C-424.12 361.36 -424.13 359.63 -424.13 357.89 C-424.16 352.17 -424.17 346.44 -424.18 340.72 C-424.18 338.75 -424.18 336.77 -424.19 334.8 C-424.21 325.52 -424.22 316.24 -424.23 306.96 C-424.24 296.28 -424.27 285.59 -424.31 274.9 C-424.34 266.63 -424.35 258.36 -424.35 250.09 C-424.36 245.16 -424.37 240.22 -424.39 235.29 C-424.41 230.64 -424.42 225.98 -424.41 221.33 C-424.41 219.63 -424.41 217.93 -424.43 216.24 C-424.54 202.14 -423.14 187.67 -416.25 175.06 C-415.91 174.41 -415.56 173.76 -415.21 173.09 C-405.73 155.69 -391.91 144.29 -372.94 138.38 C-363.21 135.79 -354.04 134.95 -344 135.01 C-342.55 135.01 -341.1 135.01 -339.65 135.01 C-335.7 135 -331.75 135.01 -327.81 135.03 C-323.53 135.04 -319.26 135.04 -314.99 135.03 C-307.6 135.03 -300.21 135.04 -292.82 135.06 C-282.14 135.08 -271.46 135.09 -260.78 135.09 C-243.44 135.1 -226.11 135.12 -208.77 135.15 C-191.94 135.18 -175.11 135.2 -158.28 135.21 C-156.72 135.21 -156.72 135.21 -155.13 135.21 C-149.92 135.22 -144.71 135.22 -139.49 135.22 C-96.31 135.26 -53.12 135.31 -9.94 135.38 C-10.27 105.34 -10.6 75.31 -10.94 44.38 C-12.26 43.72 -13.58 43.05 -14.94 42.38 C-16.82 40.32 -16.82 40.32 -18.62 37.94 C-19.23 37.16 -19.83 36.37 -20.45 35.57 C-24.13 30.15 -23.35 23.66 -22.94 17.38 C-21.77 11.88 -18.11 7.05 -13.94 3.38 C-9.31 0.5 -5.35 -0.09 0 0 Z M-8.94 47.38 C-8.94 76.75 -8.94 106.12 -8.94 136.38 C-8.61 136.38 -8.28 136.38 -7.94 136.38 C-7.94 107 -7.94 77.63 -7.94 47.38 C-8.27 47.38 -8.6 47.38 -8.94 47.38 Z M-355.94 193.38 C-356.97 194.06 -358 194.74 -359.06 195.44 C-367.76 203.09 -372.28 215.24 -373.94 226.38 C-374.03 228.2 -374.07 230.04 -374.08 231.87 C-374.08 232.93 -374.09 234 -374.1 235.1 C-374.1 236.26 -374.1 237.41 -374.1 238.6 C-374.1 239.83 -374.11 241.06 -374.11 242.32 C-374.13 245.68 -374.13 249.04 -374.14 252.4 C-374.14 254.51 -374.14 256.61 -374.15 258.72 C-374.16 265.32 -374.17 271.92 -374.18 278.53 C-374.18 286.12 -374.2 293.71 -374.23 301.3 C-374.25 307.19 -374.26 313.07 -374.26 318.96 C-374.26 322.47 -374.27 325.97 -374.29 329.48 C-374.31 333.4 -374.3 337.32 -374.29 341.24 C-374.3 342.39 -374.31 343.53 -374.32 344.7 C-374.26 356.08 -372.45 366.85 -365.94 376.38 C-365.55 376.97 -365.17 377.56 -364.77 378.16 C-361.64 382.37 -357.58 385.24 -353.25 388.12 C-352.7 388.5 -352.15 388.88 -351.58 389.27 C-342.84 394.83 -333.25 395.82 -323.11 395.76 C-321.96 395.76 -320.82 395.76 -319.64 395.77 C-315.81 395.78 -311.98 395.77 -308.15 395.76 C-305.38 395.77 -302.6 395.77 -299.82 395.78 C-293.79 395.79 -287.76 395.79 -281.73 395.79 C-272.76 395.78 -263.79 395.79 -254.82 395.8 C-238.79 395.82 -222.77 395.82 -206.75 395.81 C-192.73 395.81 -178.7 395.81 -164.68 395.82 C-162.8 395.82 -160.92 395.82 -159.04 395.82 C-156.2 395.82 -153.37 395.82 -150.53 395.82 C-124.18 395.83 -97.82 395.84 -71.46 395.83 C-70.47 395.83 -69.48 395.83 -68.45 395.83 C-60.39 395.83 -52.32 395.82 -44.25 395.82 C-12.78 395.81 18.68 395.82 50.15 395.84 C85.51 395.87 120.87 395.88 156.23 395.87 C160 395.87 163.77 395.87 167.54 395.87 C168.93 395.87 168.93 395.87 170.35 395.87 C184.36 395.87 198.38 395.88 212.39 395.89 C228.32 395.9 244.26 395.91 260.19 395.89 C269.11 395.88 278.02 395.88 286.94 395.9 C292.9 395.91 298.86 395.9 304.82 395.89 C308.21 395.88 311.6 395.88 315 395.89 C340.5 396.02 340.5 396.02 362.06 383.38 C373.43 371.24 375.38 358.54 375.32 342.35 C375.32 341.1 375.33 339.84 375.33 338.55 C375.34 335.15 375.34 331.74 375.33 328.34 C375.33 324.76 375.33 321.17 375.33 317.59 C375.34 311.58 375.33 305.56 375.32 299.55 C375.31 292.62 375.32 285.7 375.33 278.77 C375.34 272.79 375.34 266.82 375.33 260.84 C375.33 257.29 375.33 253.73 375.34 250.17 C375.34 246.2 375.33 242.24 375.32 238.27 C375.33 236.53 375.33 236.53 375.33 234.75 C375.25 219.26 371.35 206.93 360.4 195.56 C345.6 181.72 328.27 182.8 309.19 182.87 C306.43 182.86 303.67 182.86 300.9 182.85 C294.91 182.83 288.92 182.83 282.92 182.84 C274.01 182.86 265.1 182.85 256.18 182.84 C240.26 182.82 224.34 182.82 208.42 182.83 C194.49 182.84 180.56 182.84 166.63 182.84 C165.7 182.84 164.78 182.84 163.82 182.84 C160.07 182.84 156.32 182.84 152.56 182.83 C117.36 182.82 82.16 182.83 46.95 182.86 C15.69 182.87 -15.58 182.87 -46.84 182.85 C-81.98 182.83 -117.12 182.82 -152.26 182.84 C-156.01 182.84 -159.75 182.84 -163.5 182.84 C-164.42 182.84 -165.35 182.84 -166.3 182.84 C-180.22 182.85 -194.14 182.84 -208.06 182.83 C-223.9 182.82 -239.73 182.82 -255.56 182.84 C-264.42 182.85 -273.28 182.86 -282.14 182.84 C-288.06 182.83 -293.98 182.84 -299.9 182.85 C-303.27 182.86 -306.64 182.86 -310.01 182.85 C-327.41 182.79 -341.19 183.18 -355.94 193.38 Z " fill="#F9FCFE" transform="translate(550.9375,-0.375)"/>
<path d="M0 0 C0.69 -0.02 1.37 -0.04 2.08 -0.06 C12.18 -0.14 19.16 5.52 26.19 12.25 C29.75 16.46 33.31 20.72 35.13 25.98 C35.97 28.39 35.97 28.39 38.15 29.23 C38.95 29.44 39.74 29.65 40.56 29.88 C52.47 34.16 62.22 46.31 67.71 57.3 C74.55 73.52 76.2 95.27 69.78 111.9 C66.11 120.04 61.4 125.87 54.62 131.57 C52.82 133.69 52.72 134.93 52.53 137.68 C52.46 138.58 52.39 139.47 52.31 140.4 C52.25 141.37 52.19 142.34 52.12 143.34 C52.01 144.86 52.01 144.86 51.89 146.41 C51.64 149.67 51.41 152.93 51.19 156.19 C48.53 193.38 48.53 193.38 44 209.99 C42.68 215.26 41.71 220.61 40.72 225.96 C39.78 230.85 38.53 235.45 36.89 240.14 C35.86 243.22 35.16 246.34 34.44 249.5 C30.27 266.82 24.4 284.6 16.1 300.39 C15.07 302.49 14.26 304.62 13.44 306.81 C11.65 311.38 9.49 315.68 7.19 320 C6.86 320.63 6.52 321.25 6.18 321.9 C4.05 325.83 1.7 329.54 -0.81 333.25 C-1.37 334.28 -1.93 335.31 -2.5 336.38 C-6.1 342.78 -10.79 349.29 -16.03 354.43 C-18.05 356.22 -18.05 356.22 -18.81 359.25 C-20.45 360.62 -22.12 361.94 -23.81 363.25 C-24.53 363.99 -25.26 364.74 -26 365.5 C-36.32 375.59 -46.06 382.2 -60.75 382.56 C-72.22 382.34 -79.32 378.64 -87.46 370.62 C-114.08 341.26 -114.23 296.9 -114.12 259.75 C-114.12 258.48 -114.12 257.2 -114.12 255.89 C-114.08 236.83 -113.56 218.13 -110.81 199.25 C-110.67 198.23 -110.53 197.21 -110.39 196.16 C-107.39 174.54 -102.46 152.86 -95.98 132.02 C-95.18 129.45 -94.42 126.89 -93.71 124.3 C-91.3 115.6 -88.41 107.14 -85.25 98.69 C-84.69 97.17 -84.69 97.17 -84.11 95.62 C-82.25 90.71 -80.27 85.95 -77.85 81.28 C-76.66 78.94 -75.55 76.57 -74.45 74.19 C-73.83 72.87 -73.83 72.87 -73.2 71.52 C-72.36 69.72 -71.53 67.92 -70.7 66.12 C-67.88 60.1 -64.6 54.7 -60.81 49.25 C-60.32 48.42 -59.82 47.6 -59.31 46.75 C-52.69 35.71 -44.76 26.04 -35.75 16.88 C-35.18 16.29 -34.62 15.71 -34.04 15.11 C-28.77 9.85 -22.9 5.95 -16.06 3 C-15.35 2.69 -14.63 2.37 -13.89 2.05 C-9.26 0.27 -4.93 0.04 0 0 Z M52.19 128.25 C53.19 130.25 53.19 130.25 53.19 130.25 Z " fill="#F9FCFE" transform="translate(113.8125,558.75)"/>
<path d="M0 0 C1.28 -0 1.28 -0 2.59 -0 C4.39 -0 6.2 -0 8.01 0 C10.77 0.01 13.54 0 16.3 -0 C18.05 -0 19.81 -0 21.56 0 C22.39 -0 23.22 -0 24.07 -0.01 C27.39 0.01 30.11 0.07 33.28 1.13 C34.72 1.29 36.17 1.4 37.61 1.49 C51.22 2.45 64.09 4.66 77.28 8.13 C77.98 8.32 78.68 8.5 79.41 8.69 C85.72 10.38 91.02 12.13 96.28 16.13 C97.36 16.72 98.45 17.32 99.56 17.93 C103.27 20.02 106.31 22.53 109.41 25.45 C109.93 25.93 110.45 26.42 110.98 26.91 C117.45 33.05 121.8 38.73 122.62 47.87 C122.96 63.14 117.52 74.72 107.04 85.91 C105.51 87.45 103.96 88.99 102.41 90.51 C101.58 91.32 100.76 92.13 99.91 92.97 C90.32 102.27 80.13 110.7 68.32 117.01 C66.39 118.07 64.56 119.22 62.72 120.45 C53.53 126.28 43.3 130.91 33.28 135.13 C32.34 135.53 31.4 135.93 30.43 136.34 C27.38 137.62 24.33 138.88 21.28 140.13 C20.49 140.46 19.7 140.79 18.89 141.13 C5.94 146.44 -7.32 150.76 -20.78 154.58 C-22.51 155.07 -24.23 155.59 -25.95 156.12 C-43.21 161.33 -61.02 164.96 -78.85 167.55 C-81.85 168 -84.76 168.53 -87.72 169.2 C-108.32 173.47 -130.07 173.3 -150.98 173.1 C-152.17 173.09 -153.36 173.08 -154.59 173.07 C-156.18 173.05 -156.18 173.05 -157.81 173.04 C-160.57 173.13 -163.02 173.56 -165.72 174.13 C-180.59 175.19 -195.07 174.6 -208.37 167.32 C-210.76 166.11 -213.02 165.35 -215.59 164.63 C-225.75 161.77 -234.4 157.64 -242.72 151.13 C-243.44 150.59 -244.16 150.04 -244.91 149.48 C-253.57 142.51 -257.81 133.86 -259.09 122.95 C-258.29 114.78 -255.39 106.47 -251.72 99.13 C-250.73 98.64 -250.73 98.64 -249.72 98.13 C-248.76 96.43 -247.8 94.73 -246.85 93.02 C-240.17 81.89 -228.36 73.11 -217.72 66.13 C-216.73 65.47 -215.74 64.81 -214.72 64.13 C-211.72 62.13 -208.72 60.13 -205.72 58.13 C-204.77 57.47 -203.82 56.81 -202.84 56.13 C-199.88 54.24 -196.92 52.68 -193.77 51.15 C-191.78 50.16 -189.83 49.12 -187.89 48.05 C-170.57 38.57 -152.36 31.58 -133.72 25.13 C-132.86 24.84 -132 24.54 -131.12 24.23 C-95.18 11.93 -57.62 4.42 -19.75 1.78 C-18.25 1.67 -18.25 1.67 -16.71 1.56 C-15.82 1.5 -14.92 1.44 -14.01 1.38 C-1.31 -0 -1.31 -0 0 0 Z M-8.72 1.13 C-4.72 2.13 -4.72 2.13 -4.72 2.13 Z M-159.72 171.13 C-155.72 172.13 -155.72 172.13 -155.72 172.13 Z " fill="#F9FCFE" transform="translate(1157.71875,473.8671875)"/>
<path d="M0 0 C7.09 0.66 13.92 1.93 20.88 3.44 C28.56 5.09 36.25 6.64 44 8 C46.12 13.19 46.25 17.64 46.16 23.14 C46.15 24.02 46.15 24.9 46.14 25.81 C46.13 28.62 46.1 31.44 46.06 34.25 C45.96 44.81 45.85 55.36 46.36 65.92 C46.39 66.63 46.42 67.35 46.45 68.09 C47.13 80.07 52.91 91.34 61.5 99.62 C73.44 109.44 86.52 112.32 101.62 112.25 C102.76 112.26 103.89 112.26 105.06 112.26 C108.87 112.27 112.67 112.27 116.47 112.26 C119.22 112.26 121.98 112.27 124.73 112.27 C130.72 112.28 136.7 112.28 142.69 112.28 C151.59 112.27 160.5 112.28 169.4 112.29 C186.22 112.3 203.05 112.3 219.88 112.3 C232.87 112.3 245.87 112.3 258.86 112.31 C260.73 112.31 262.6 112.31 264.46 112.31 C267.28 112.31 270.09 112.31 272.9 112.31 C299.06 112.32 325.22 112.32 351.39 112.32 C352.37 112.32 353.36 112.32 354.37 112.32 C359.37 112.32 364.37 112.32 369.37 112.32 C370.36 112.32 371.35 112.32 372.38 112.32 C374.38 112.32 376.39 112.32 378.4 112.32 C409.63 112.31 440.86 112.32 472.09 112.34 C507.19 112.36 542.28 112.37 577.38 112.36 C581.12 112.36 584.86 112.36 588.6 112.36 C589.99 112.36 589.99 112.36 591.4 112.36 C605.3 112.36 619.21 112.37 633.11 112.38 C648.93 112.39 664.75 112.39 680.57 112.38 C689.42 112.37 698.26 112.37 707.11 112.39 C713.03 112.4 718.95 112.39 724.86 112.38 C728.23 112.38 731.6 112.38 734.96 112.39 C763.56 112.58 763.56 112.58 787.88 98.75 C798.44 87.18 800.44 72.93 800.41 57.84 C800.42 55.85 800.44 53.86 800.46 51.86 C800.49 47.7 800.49 43.55 800.51 39.39 C800.51 35.93 800.53 32.48 800.56 29.03 C800.58 26.45 800.59 23.87 800.58 21.29 C800.6 19.55 800.6 19.55 800.62 17.77 C800.62 16.24 800.62 16.24 800.62 14.68 C801.06 11.59 801.84 10.23 804 8 C806.69 7.13 806.69 7.13 809.93 6.62 C811.11 6.42 812.29 6.23 813.51 6.02 C814.77 5.83 816.02 5.64 817.31 5.44 C819.86 5.02 822.4 4.6 824.95 4.18 C826.17 3.98 827.39 3.78 828.65 3.57 C833.72 2.71 838.72 1.58 843.73 0.38 C846 0 846 0 848 1 C848.05 13.49 848.08 25.98 848.1 38.48 C848.11 44.28 848.13 50.08 848.15 55.88 C848.17 61.48 848.18 67.08 848.19 72.68 C848.19 74.82 848.2 76.95 848.21 79.08 C848.23 82.08 848.23 85.08 848.23 88.07 C848.23 88.95 848.24 89.82 848.25 90.72 C848.19 109.35 839.7 124.98 827.12 138.25 C812.55 152.1 797.18 157.33 777.39 157.25 C776.14 157.26 774.9 157.26 773.62 157.26 C770.19 157.27 766.75 157.27 763.31 157.26 C759.57 157.26 755.82 157.27 752.08 157.27 C745.52 157.28 738.97 157.28 732.41 157.28 C722.66 157.27 712.91 157.28 703.15 157.29 C684.72 157.3 666.29 157.3 647.87 157.3 C633.63 157.3 619.4 157.3 605.17 157.31 C603.13 157.31 601.08 157.31 599.04 157.31 C595.96 157.31 592.88 157.31 589.8 157.31 C561.15 157.32 532.51 157.32 503.87 157.32 C502.79 157.32 501.71 157.32 500.6 157.32 C495.12 157.32 489.65 157.32 484.18 157.32 C483.09 157.32 482 157.32 480.88 157.32 C478.69 157.32 476.49 157.32 474.29 157.32 C440.08 157.31 405.88 157.32 371.67 157.34 C333.24 157.36 294.81 157.37 256.39 157.36 C252.29 157.36 248.19 157.36 244.09 157.36 C242.58 157.36 242.58 157.36 241.04 157.36 C225.81 157.36 210.57 157.37 195.34 157.38 C178.02 157.39 160.7 157.39 143.38 157.38 C133.68 157.37 123.99 157.37 114.3 157.39 C107.82 157.4 101.34 157.39 94.87 157.38 C91.18 157.38 87.49 157.37 83.8 157.39 C79.82 157.4 75.84 157.39 71.86 157.37 C70.73 157.38 69.59 157.39 68.42 157.4 C53.29 157.29 41.24 152.54 29 144 C27.93 143.32 26.85 142.64 25.75 141.94 C14.19 133.79 3.96 117.9 1.23 104.11 C0.88 101.65 0.58 99.18 0.32 96.7 C0.29 94.09 0.29 94.09 -1 93 C-1.1 90.18 -1.14 87.38 -1.13 84.56 C-1.13 83.68 -1.13 82.8 -1.13 81.88 C-1.14 78.95 -1.14 76.01 -1.13 73.07 C-1.13 71.03 -1.13 69 -1.14 66.96 C-1.14 62.69 -1.14 58.42 -1.13 54.16 C-1.12 48.67 -1.13 43.19 -1.13 37.71 C-1.14 33.5 -1.14 29.3 -1.13 25.1 C-1.13 23.08 -1.13 21.06 -1.14 19.03 C-1.14 16.21 -1.13 13.39 -1.13 10.56 C-1.13 9.72 -1.13 8.88 -1.14 8.01 C-1.11 2.23 -1.11 2.23 0 0 Z " fill="#F9FCFE" transform="translate(128,286)"/>
<path d="M0 0 C0.7 0.04 1.4 0.08 2.11 0.12 C6.77 0.41 6.77 0.41 9.01 1.54 C11.62 1.82 14.21 2.05 16.82 2.25 C17.6 2.32 18.37 2.38 19.16 2.44 C22.47 2.71 25.78 2.97 29.09 3.23 C31.5 3.42 33.91 3.62 36.32 3.82 C37.46 3.9 37.46 3.9 38.61 3.99 C43.89 4.42 43.89 4.42 45.01 5.54 C46.51 5.58 48.01 5.57 49.51 5.54 C51.01 5.5 52.51 5.49 54.01 5.54 C54.34 5.87 54.67 6.2 55.01 6.54 C56.16 6.54 57.32 6.54 58.51 6.54 C59.66 6.54 60.82 6.54 62.01 6.54 C62.34 6.87 62.67 7.2 63.01 7.54 C64.12 7.54 65.24 7.54 66.38 7.54 C70.01 7.54 70.01 7.54 73.01 8.54 C74.33 8.79 75.66 9.01 76.99 9.22 C78.15 9.4 78.15 9.4 79.33 9.59 C80.93 9.84 82.54 10.09 84.14 10.34 C87.7 10.91 91.06 11.55 94.52 12.57 C97.25 13.32 99.43 13.72 102.2 13.97 C106.75 14.44 111.01 15.41 115.42 16.61 C116.57 16.92 116.57 16.92 117.75 17.23 C119.37 17.67 121 18.11 122.62 18.55 C125.04 19.21 127.46 19.86 129.89 20.5 C144.07 24.31 157.66 29.09 170.88 35.54 C171.78 35.97 172.67 36.4 173.59 36.84 C179.6 39.77 185.45 42.82 191.01 46.54 C191.69 46.97 192.37 47.41 193.08 47.87 C196.37 50.07 198.63 51.78 200.01 55.54 C200.67 56.53 201.33 57.52 202.01 58.54 C144.49 77.88 84.2 86.1 23.98 91.28 C21.03 91.53 18.08 91.8 15.13 92.08 C-4.47 93.89 -24.05 94.63 -43.72 95.04 C-46.56 95.1 -49.39 95.16 -52.22 95.23 C-71.63 95.66 -91.02 95.62 -110.43 95.16 C-111.34 95.14 -112.25 95.12 -113.19 95.1 C-126.67 94.77 -140.15 94.29 -153.62 93.6 C-154.38 93.56 -155.14 93.52 -155.93 93.48 C-164.5 93.05 -172.99 92.37 -181.51 91.31 C-186.7 90.67 -191.88 90.17 -197.08 89.75 C-259.73 84.53 -326.14 74.33 -383.99 48.54 C-379.43 38.1 -367.94 33.53 -357.99 29.54 C-352.91 27.69 -347.71 26.26 -342.49 24.85 C-341.81 24.66 -341.12 24.47 -340.41 24.27 C-328.9 21.09 -317.35 18.63 -305.5 16.99 C-302.79 16.53 -302.79 16.53 -299.39 15.58 C-294.31 14.29 -289.19 13.69 -284 13.06 C-282.97 12.93 -281.95 12.81 -280.89 12.67 C-277.63 12.27 -274.37 11.87 -271.12 11.47 C-267.84 11.07 -264.56 10.67 -261.28 10.26 C-259.25 10.01 -257.21 9.76 -255.18 9.51 C-254.26 9.4 -253.35 9.28 -252.41 9.17 C-251.6 9.07 -250.79 8.97 -249.96 8.87 C-247.92 8.62 -247.92 8.62 -245.99 7.54 C-243.01 7.19 -240.04 6.89 -237.04 6.63 C-235.67 6.51 -235.67 6.51 -234.28 6.38 C-231.29 6.12 -228.3 5.86 -225.3 5.6 C-224.29 5.51 -223.28 5.42 -222.24 5.33 C-207.81 4.05 -193.38 2.94 -178.91 2.13 C-177.75 2.06 -176.58 2 -175.39 1.93 C-174.38 1.88 -173.38 1.82 -172.35 1.77 C-169.97 1.68 -169.97 1.68 -167.99 0.54 C-165.14 0.3 -162.31 0.13 -159.45 0 C-158.54 -0.04 -157.63 -0.09 -156.69 -0.13 C-153.58 -0.27 -150.48 -0.4 -147.37 -0.53 C-146.28 -0.57 -145.19 -0.62 -144.07 -0.66 C-96.18 -2.53 -47.86 -2.74 0 0 Z M-116.99 -0.46 C-112.99 0.54 -112.99 0.54 -112.99 0.54 Z M-41.99 -0.46 C-41.99 -0.13 -41.99 0.2 -41.99 0.54 C-40.34 0.54 -38.69 0.54 -36.99 0.54 C-36.99 0.21 -36.99 -0.12 -36.99 -0.46 C-38.64 -0.46 -40.29 -0.46 -41.99 -0.46 Z M-147.99 0.54 C-143.99 1.54 -143.99 1.54 -143.99 1.54 Z M-167.99 1.54 C-163.99 2.54 -163.99 2.54 -163.99 2.54 Z " fill="#87EAEE" transform="translate(637.9921875,499.46484375)"/>
<path d="M0 0 C0.98 -0 1.95 -0.01 2.96 -0.01 C4.56 -0.01 4.56 -0.01 6.2 -0 C7.34 -0.01 8.49 -0.01 9.67 -0.01 C12.85 -0.01 16.04 -0.01 19.23 -0.01 C22.69 -0.01 26.15 -0.02 29.61 -0.02 C36.48 -0.03 43.36 -0.03 50.23 -0.03 C58.46 -0.03 66.69 -0.04 74.92 -0.05 C94.81 -0.06 114.7 -0.07 134.59 -0.07 C144 -0.08 153.41 -0.08 162.82 -0.08 C195.01 -0.1 227.21 -0.11 259.41 -0.11 C261.43 -0.11 263.45 -0.11 265.47 -0.11 C267.5 -0.11 269.53 -0.11 271.55 -0.11 C275.62 -0.11 279.69 -0.11 283.75 -0.11 C284.76 -0.11 285.77 -0.11 286.81 -0.11 C319.5 -0.12 352.19 -0.13 384.88 -0.16 C419.43 -0.18 453.98 -0.19 488.54 -0.2 C492.33 -0.2 496.12 -0.2 499.91 -0.2 C501.31 -0.2 501.31 -0.2 502.74 -0.2 C517.78 -0.2 532.81 -0.21 547.85 -0.22 C562.96 -0.24 578.06 -0.24 593.17 -0.23 C602.15 -0.23 611.13 -0.23 620.11 -0.25 C626.11 -0.26 632.1 -0.26 638.1 -0.25 C641.52 -0.24 644.94 -0.24 648.35 -0.25 C652.04 -0.26 655.72 -0.26 659.4 -0.24 C660.99 -0.26 660.99 -0.26 662.61 -0.27 C675.49 -0.18 686.43 4.26 696.13 12.85 C697.65 14.54 698.92 16.24 700.18 18.13 C700.7 18.9 701.22 19.67 701.76 20.47 C707.44 29.41 710.25 38.24 710.39 48.85 C710.4 49.5 710.41 50.15 710.42 50.83 C710.45 52.98 710.47 55.12 710.5 57.27 C710.52 58.77 710.54 60.26 710.56 61.76 C710.61 65.68 710.66 69.61 710.71 73.53 C710.76 77.54 710.82 81.55 710.87 85.56 C710.98 93.41 711.08 101.27 711.18 109.13 C715.97 110.26 719.83 109.66 724.59 108.66 C725.39 108.5 726.19 108.34 727.02 108.18 C729.57 107.67 732.13 107.15 734.68 106.63 C738.04 105.94 741.41 105.26 744.77 104.6 C745.54 104.43 746.31 104.27 747.1 104.11 C751.09 103.32 754.25 102.95 758.18 104.13 C757.85 105.45 757.52 106.77 757.18 108.13 C756.19 107.8 755.2 107.47 754.18 107.13 C752.1 107.43 750.02 107.83 747.97 108.27 C746.72 108.54 745.48 108.8 744.19 109.07 C742.88 109.36 741.56 109.65 740.24 109.94 C737.69 110.49 735.14 111.04 732.59 111.58 C731.35 111.85 730.11 112.12 728.83 112.4 C724.4 113.28 719.95 113.94 715.47 114.51 C712.82 114.96 712.82 114.96 711.18 118.13 C710.87 120.77 710.87 120.77 710.91 123.79 C710.9 124.95 710.89 126.11 710.88 127.31 C710.88 128.57 710.87 129.83 710.87 131.12 C710.85 133.11 710.83 135.1 710.81 137.08 C710.77 141.97 710.75 146.86 710.72 151.75 C710.71 154.49 710.69 157.23 710.66 159.97 C710.64 162.55 710.62 165.12 710.62 167.7 C710.46 182.21 707.12 194.96 697.18 205.88 C685.33 216.99 671.13 219.45 655.42 219.38 C654.28 219.38 653.15 219.39 651.98 219.39 C648.17 219.4 644.37 219.39 640.56 219.38 C637.81 219.38 635.05 219.39 632.29 219.39 C626.3 219.4 620.31 219.4 614.32 219.39 C605.41 219.39 596.5 219.39 587.59 219.4 C571.67 219.41 555.76 219.41 539.85 219.4 C525.92 219.39 511.99 219.39 498.07 219.4 C496.68 219.4 496.68 219.4 495.27 219.4 C491.52 219.4 487.77 219.4 484.02 219.4 C448.84 219.4 413.66 219.4 378.49 219.39 C347.23 219.38 315.98 219.38 284.73 219.39 C249.62 219.4 214.5 219.4 179.39 219.4 C175.64 219.4 171.9 219.4 168.16 219.4 C167.24 219.4 166.31 219.39 165.37 219.39 C151.45 219.39 137.53 219.4 123.61 219.4 C107.79 219.41 91.96 219.4 76.14 219.39 C67.28 219.39 58.43 219.39 49.57 219.39 C43.65 219.4 37.74 219.4 31.82 219.39 C28.45 219.38 25.08 219.38 21.71 219.39 C18.08 219.39 14.45 219.39 10.81 219.38 C9.77 219.38 8.73 219.39 7.65 219.39 C-7.92 219.31 -21.38 214.48 -32.7 203.51 C-36.1 199.69 -38.59 195.72 -40.82 191.13 C-41.22 190.32 -41.62 189.51 -42.03 188.68 C-44.37 183.24 -45.15 177.99 -45.43 172.12 C-45.46 171.34 -45.5 170.56 -45.54 169.76 C-45.99 159.95 -45.89 150.13 -45.82 140.32 C-45.79 136.6 -45.77 132.89 -45.76 129.17 C-45.75 128.33 -45.74 127.5 -45.73 126.64 C-45.72 122.66 -45.82 119.01 -46.82 115.13 C-48.12 114.88 -48.12 114.88 -49.44 114.62 C-52.73 113.99 -56.01 113.36 -59.3 112.73 C-60.7 112.46 -62.11 112.19 -63.52 111.92 C-72.98 110.1 -82.41 108.19 -91.82 106.13 C-91.49 105.14 -91.16 104.15 -90.82 103.13 C-82.47 103.79 -74.3 105.19 -66.08 106.71 C-63.8 107.13 -61.52 107.54 -59.24 107.96 C-57.79 108.22 -56.33 108.49 -54.88 108.75 C-54.2 108.88 -53.52 109 -52.82 109.13 C-48.05 110.01 -48.05 110.01 -45.82 111.13 C-45.82 110.5 -45.82 109.88 -45.83 109.24 C-45.85 102.65 -45.86 96.06 -45.87 89.47 C-45.88 87.02 -45.89 84.58 -45.9 82.13 C-45.98 58.65 -45.98 58.65 -45.45 47.84 C-45.42 47.15 -45.39 46.46 -45.36 45.74 C-44.75 35.24 -40.01 26.4 -33.82 18.13 C-33.24 17.26 -32.66 16.4 -32.07 15.5 C-24.08 7.07 -11.82 0.01 0 0 Z M-23.82 13.13 C-24.85 13.81 -25.88 14.49 -26.94 15.19 C-35.64 22.84 -40.16 34.99 -41.82 46.13 C-41.91 47.96 -41.95 49.79 -41.96 51.62 C-41.97 52.69 -41.97 53.75 -41.98 54.85 C-41.98 56.01 -41.98 57.16 -41.98 58.35 C-41.99 59.58 -41.99 60.81 -42 62.08 C-42.01 65.44 -42.02 68.79 -42.02 72.15 C-42.02 74.26 -42.03 76.36 -42.03 78.47 C-42.05 85.07 -42.05 91.68 -42.06 98.28 C-42.06 105.87 -42.08 113.46 -42.11 121.05 C-42.13 126.94 -42.14 132.82 -42.14 138.71 C-42.14 142.22 -42.15 145.73 -42.17 149.23 C-42.19 153.15 -42.18 157.08 -42.18 161 C-42.19 162.14 -42.19 163.28 -42.2 164.45 C-42.15 175.84 -40.33 186.61 -33.82 196.13 C-33.44 196.72 -33.05 197.31 -32.66 197.92 C-29.52 202.13 -25.46 204.99 -21.13 207.88 C-20.58 208.25 -20.03 208.63 -19.46 209.02 C-10.73 214.58 -1.13 215.57 9.01 215.51 C10.15 215.51 11.3 215.52 12.48 215.52 C16.31 215.53 20.14 215.52 23.97 215.52 C26.74 215.52 29.52 215.52 32.29 215.53 C38.33 215.54 44.36 215.55 50.39 215.54 C59.36 215.53 68.33 215.54 77.3 215.55 C93.32 215.57 109.35 215.57 125.37 215.57 C139.39 215.56 153.41 215.56 167.44 215.57 C169.32 215.57 171.2 215.57 173.08 215.57 C175.92 215.57 178.75 215.57 181.59 215.57 C207.94 215.58 234.3 215.59 260.65 215.58 C261.65 215.58 262.64 215.58 263.67 215.58 C271.73 215.58 279.8 215.58 287.87 215.57 C319.33 215.56 350.8 215.57 382.27 215.59 C417.63 215.62 452.99 215.63 488.35 215.63 C492.12 215.63 495.89 215.62 499.66 215.62 C501.05 215.62 501.05 215.62 502.47 215.62 C516.48 215.62 530.49 215.63 544.51 215.64 C560.44 215.66 576.38 215.66 592.31 215.64 C601.23 215.63 610.14 215.63 619.06 215.65 C625.02 215.66 630.98 215.66 636.94 215.64 C640.33 215.63 643.72 215.63 647.11 215.64 C672.62 215.78 672.62 215.78 694.18 203.13 C705.55 191 707.5 178.29 707.44 162.1 C707.44 160.85 707.45 159.6 707.45 158.31 C707.46 154.9 707.46 151.5 707.45 148.09 C707.44 144.51 707.45 140.93 707.45 137.34 C707.46 131.33 707.45 125.32 707.44 119.31 C707.43 112.38 707.43 105.45 707.44 98.52 C707.45 92.55 707.45 86.57 707.45 80.6 C707.45 77.04 707.45 73.48 707.45 69.92 C707.46 65.96 707.45 61.99 707.44 58.02 C707.45 56.28 707.45 56.28 707.45 54.5 C707.37 39.01 703.47 26.68 692.52 15.32 C677.71 1.47 660.38 2.55 641.31 2.62 C638.55 2.62 635.78 2.61 633.02 2.6 C627.03 2.59 621.03 2.59 615.04 2.6 C606.13 2.61 597.22 2.6 588.3 2.59 C572.38 2.57 556.46 2.57 540.54 2.58 C526.61 2.59 512.68 2.6 498.74 2.59 C497.82 2.59 496.89 2.59 495.94 2.59 C492.19 2.59 488.43 2.59 484.68 2.59 C449.48 2.58 414.27 2.59 379.07 2.61 C347.81 2.63 316.54 2.63 285.27 2.61 C250.14 2.58 215 2.58 179.86 2.59 C176.11 2.59 172.36 2.59 168.62 2.59 C167.69 2.59 166.77 2.59 165.82 2.59 C151.9 2.6 137.98 2.59 124.05 2.58 C108.22 2.57 92.39 2.57 76.55 2.6 C67.7 2.61 58.84 2.61 49.98 2.59 C44.06 2.58 38.14 2.59 32.22 2.61 C28.85 2.62 25.48 2.62 22.11 2.61 C4.71 2.55 -9.07 2.94 -23.82 13.13 Z " fill="#87EAEE" transform="translate(218.81981909275055,179.87234950065613)"/>
<path d="M0 0 C7.81 7.43 11.56 16.2 12.31 26.75 C11.49 38.26 7.1 44.57 -1.19 52.5 C-11.12 60.98 -24.29 64.83 -37.19 64.62 C-38.1 64.62 -39.01 64.61 -39.95 64.6 C-51.66 64.34 -61.67 62.07 -71.94 56.25 C-72.63 55.95 -73.31 55.65 -74.02 55.34 C-76.34 54.02 -77.41 52.61 -78.94 50.44 C-80.61 48.1 -82.25 45.88 -84.12 43.69 C-89.8 36.05 -89.81 28.57 -88.94 19.25 C-88.1 15.85 -86.82 13.19 -84.94 10.25 C-84.46 9.49 -83.99 8.73 -83.5 7.95 C-75.81 -3.07 -62.37 -9.39 -49.44 -12.06 C-31.81 -14.69 -14.26 -10.98 0 0 Z " fill="#87EAEE" transform="translate(1018.9375,583.75)"/>
<path d="M0 0 C0.64 0.41 1.27 0.81 1.93 1.23 C9.99 7.25 17.21 19.13 19 29 C19.06 30.75 19.08 32.51 19.06 34.27 C19.05 35.16 19.04 36.05 19.03 36.96 C19.02 37.63 19.01 38.31 19 39 C6.89 39.02 -5.22 39.04 -17.33 39.05 C-22.95 39.06 -28.57 39.06 -34.19 39.08 C-39.61 39.09 -45.03 39.09 -50.45 39.09 C-52.53 39.1 -54.6 39.1 -56.67 39.11 C-59.56 39.11 -62.46 39.11 -65.35 39.11 C-66.22 39.12 -67.08 39.12 -67.97 39.12 C-73.89 39.11 -73.89 39.11 -75 38 C-76.22 27.27 -70.25 16.45 -64 8 C-46.75 -11.24 -21.12 -13.53 0 0 Z " fill="#87EAEE" transform="translate(730,274)"/>
<path d="M0 0 C9.69 7.95 17.16 18.42 19 31 C19.05 33.67 19.02 36.33 19 39 C6.89 39.02 -5.22 39.04 -17.33 39.05 C-22.95 39.06 -28.57 39.06 -34.19 39.08 C-39.61 39.09 -45.03 39.09 -50.45 39.09 C-52.53 39.1 -54.6 39.1 -56.67 39.11 C-59.56 39.11 -62.46 39.11 -65.35 39.11 C-66.22 39.12 -67.08 39.12 -67.97 39.12 C-73.89 39.11 -73.89 39.11 -75 38 C-76.22 27.05 -70.53 16.41 -64 8 C-47.13 -10.72 -20.66 -14.2 0 0 Z " fill="#87EAEE" transform="translate(433,274)"/>
<path d="M0 0 C0.33 0.66 0.66 1.32 1 2 C1.77 2.15 2.54 2.3 3.33 2.46 C9.81 3.77 13.97 9.66 17.57 14.84 C27.94 30.53 30.65 50.15 27.28 68.58 C24.22 82.59 18.25 94.58 5.94 102.56 C1.68 104.95 -1.18 105.63 -6 105 C-6.32 103.06 -6.63 101.13 -6.94 99.19 C-7.11 98.11 -7.29 97.03 -7.46 95.92 C-9 84.71 -9.24 73.61 -9.25 62.31 C-9.25 61.45 -9.25 60.59 -9.25 59.7 C-9.24 15.84 -9.24 15.84 0 0 Z " fill="#87EAEE" transform="translate(231,587)"/>
<path d="M0 0 C11.81 2.27 20.37 12.54 27.02 21.84 C36.81 37.49 37.97 57.79 34.88 75.66 C32.28 85.51 27.24 94.79 19 101 C17.51 101.5 17.51 101.5 16 102 C14.8 98.39 14.72 94.97 14.57 91.2 C14.5 89.6 14.43 88 14.35 86.39 C14.32 85.55 14.28 84.71 14.24 83.85 C13.03 56.96 10.6 30.63 0.77 5.3 C0 3 0 3 0 0 Z " fill="#87EAEE" transform="translate(151,588)"/>
<path d="M0 0 C1.04 -0.01 2.09 -0.02 3.16 -0.02 C5.94 0.38 5.94 0.38 7.75 1.71 C10.48 5.53 10.11 9.7 10.14 14.18 C10.15 14.95 10.15 15.71 10.16 16.5 C10.17 18.11 10.17 19.72 10.18 21.34 C10.19 23.8 10.22 26.26 10.25 28.73 C10.26 30.3 10.26 31.87 10.27 33.43 C10.28 34.17 10.29 34.9 10.3 35.66 C10.29 38.81 10.11 41.04 8.62 43.84 C5.95 46.28 3.52 45.87 0 45.81 C-1.84 45.81 -1.84 45.81 -3.71 45.81 C-7.24 45.35 -8.69 44.99 -11.06 42.38 C-12.6 36.54 -12.25 30.55 -12.25 24.56 C-12.26 23.41 -12.27 22.26 -12.29 21.08 C-12.31 5.92 -12.31 5.92 -8.32 1.4 C-5.42 0.08 -3.18 -0.02 0 0 Z " fill="#87EAEE" transform="translate(510.0625,712.625)"/>
<path d="M0 0 C1.14 -0.04 2.29 -0.08 3.47 -0.12 C6.5 0.44 6.5 0.44 8.17 2.46 C9.86 6.24 9.91 9.63 9.86 13.7 C9.86 14.48 9.86 15.27 9.86 16.07 C9.86 17.73 9.85 19.38 9.84 21.03 C9.81 23.56 9.82 26.09 9.82 28.62 C9.82 30.23 9.81 31.84 9.8 33.45 C9.8 34.58 9.8 34.58 9.8 35.74 C9.75 39.5 9.64 41.23 7.5 44.44 C4.76 44.74 2.3 44.86 -0.44 44.81 C-1.17 44.82 -1.9 44.84 -2.65 44.85 C-7.92 44.82 -7.92 44.82 -10.44 43.16 C-13.89 37.53 -12.72 29.96 -12.75 23.62 C-12.77 22.37 -12.79 21.11 -12.81 19.81 C-12.86 7.94 -12.86 7.94 -9.5 2.44 C-5.97 0.08 -4.19 0.08 0 0 Z " fill="#87EAEE" transform="translate(510.5,782.5625)"/>
<path d="M0 0 C1.57 -0.06 1.57 -0.06 3.18 -0.11 C6.12 0.31 6.12 0.31 8.28 1.8 C10.89 5.36 10.68 8.67 10.62 12.91 C10.62 13.74 10.62 14.57 10.63 15.43 C10.62 17.18 10.61 18.93 10.59 20.68 C10.56 23.37 10.57 26.05 10.58 28.74 C10.58 30.44 10.57 32.14 10.56 33.85 C10.56 34.65 10.56 35.45 10.57 36.28 C10.47 41.78 10.47 41.78 8.8 44.32 C6.02 45.97 3.37 45.71 0.19 45.69 C-1.04 45.7 -2.26 45.7 -3.53 45.71 C-7.23 45.27 -8.39 45.05 -10.88 42.31 C-11.27 39.35 -11.41 36.77 -11.37 33.81 C-11.37 32.98 -11.37 32.15 -11.38 31.29 C-11.37 29.53 -11.36 27.77 -11.34 26.02 C-11.31 23.32 -11.32 20.63 -11.33 17.94 C-11.33 16.23 -11.32 14.52 -11.31 12.81 C-11.31 12.01 -11.31 11.2 -11.32 10.37 C-11.22 4.73 -11.22 4.73 -9.47 2.64 C-6.38 0.07 -3.96 0.09 0 0 Z " fill="#87EAEE" transform="translate(545.875,681.6875)"/>
<path d="M0 0 C1.23 -0.01 2.46 -0.02 3.72 -0.03 C6.94 0.5 6.94 0.5 8.61 2 C10.52 5.61 10.41 9.1 10.41 13.1 C10.42 14.34 10.42 14.34 10.43 15.61 C10.44 17.37 10.44 19.12 10.44 20.87 C10.44 23.56 10.48 26.24 10.52 28.92 C10.53 30.63 10.53 32.33 10.53 34.04 C10.56 35.24 10.56 35.24 10.58 36.47 C10.55 38.73 10.55 38.73 9.94 42.5 C6.9 45.03 4.49 45.92 0.56 45.88 C-0.15 45.88 -0.86 45.89 -1.59 45.9 C-5.01 45.35 -7.9 43.89 -11.06 42.5 C-11.16 37.16 -11.23 31.82 -11.28 26.48 C-11.3 24.67 -11.33 22.85 -11.36 21.04 C-11.41 18.43 -11.44 15.81 -11.45 13.2 C-11.47 12.39 -11.49 11.58 -11.52 10.75 C-11.52 7.13 -11.4 4.96 -9.25 1.99 C-6.13 -0.14 -3.74 -0.03 0 0 Z " fill="#87EAEE" transform="translate(546.0625,818.5)"/>
<path d="M0 0 C1.04 -0.04 2.08 -0.07 3.15 -0.11 C6.06 0.31 6.06 0.31 8.21 1.8 C10.83 5.35 10.64 8.67 10.59 12.91 C10.6 13.74 10.6 14.57 10.61 15.43 C10.61 17.18 10.6 18.93 10.58 20.68 C10.56 23.37 10.58 26.05 10.61 28.74 C10.61 30.44 10.6 32.14 10.59 33.85 C10.6 34.65 10.61 35.45 10.62 36.28 C10.53 41.81 10.53 41.81 8.21 44.32 C5.38 45.63 3.17 45.68 0.06 45.62 C-0.97 45.62 -2 45.62 -3.06 45.61 C-5.89 45.32 -7.57 44.86 -9.94 43.31 C-11.51 40.18 -11.1 36.83 -11.11 33.38 C-11.11 32.6 -11.11 31.81 -11.12 31 C-11.12 29.33 -11.12 27.67 -11.12 26 C-11.12 23.45 -11.14 20.91 -11.16 18.36 C-11.17 16.74 -11.17 15.13 -11.17 13.51 C-11.18 12.75 -11.18 11.99 -11.19 11.2 C-11.16 4.25 -11.16 4.25 -8.94 1.31 C-5.78 0.26 -3.32 0.08 0 0 Z " fill="#0E065A" transform="translate(617.9375,818.6875)"/>
<path d="M0 0 C1.69 -0.05 1.69 -0.05 3.41 -0.1 C6.5 0.62 6.5 0.62 8.66 3.18 C10.75 7.09 11.08 10.15 11.03 14.47 C11.04 15.21 11.04 15.94 11.04 16.7 C11.05 18.24 11.04 19.79 11.02 21.33 C11 23.68 11.02 26.04 11.05 28.39 C11.04 29.9 11.04 31.4 11.03 32.91 C11.04 33.61 11.05 34.31 11.06 35.03 C10.99 38.57 10.55 40.55 8.64 43.57 C6.5 45.62 6.5 45.62 3.66 46.22 C2.64 46.19 1.62 46.16 0.56 46.12 C-0.97 46.11 -0.97 46.11 -2.53 46.09 C-6.06 45.54 -7.76 44.95 -10.5 42.62 C-11 39.61 -11.18 37.17 -11.13 34.16 C-11.13 33.33 -11.13 32.5 -11.14 31.65 C-11.14 29.89 -11.12 28.14 -11.1 26.38 C-11.06 23.7 -11.08 21.02 -11.1 18.34 C-11.09 16.63 -11.08 14.93 -11.07 13.22 C-11.07 12.02 -11.07 12.02 -11.08 10.79 C-11.01 7.21 -10.81 5.05 -8.66 2.13 C-5.7 0.07 -3.57 0.02 0 0 Z " fill="#0E065A" transform="translate(581.5,849.375)"/>
<path d="M0 0 C2.58 1.89 3.6 3.19 5 6 C5.14 8.58 5.21 11.13 5.24 13.71 C5.25 14.48 5.25 15.24 5.26 16.03 C5.28 17.65 5.29 19.27 5.3 20.88 C5.31 23.36 5.36 25.83 5.4 28.3 C5.41 29.88 5.42 31.45 5.43 33.02 C5.44 33.76 5.46 34.5 5.48 35.26 C5.46 38.74 5.26 40.65 3.15 43.47 C0.32 45.48 -1.49 45.5 -4.94 45.44 C-6.47 45.44 -6.47 45.44 -8.03 45.43 C-11.58 44.92 -13.25 44.34 -16 42 C-16.49 38.98 -16.66 36.52 -16.59 33.5 C-16.59 32.67 -16.59 31.84 -16.59 30.98 C-16.59 29.22 -16.57 27.46 -16.54 25.7 C-16.5 23.01 -16.5 20.32 -16.51 17.62 C-16.5 15.92 -16.48 14.21 -16.47 12.5 C-16.47 11.69 -16.47 10.89 -16.47 10.06 C-16.35 4.44 -16.35 4.44 -14.66 2.33 C-10.56 -0.95 -4.98 -0.61 0 0 Z " fill="#0E065A" transform="translate(587,645)"/>
<path d="M0 0 C1.23 -0.04 2.46 -0.08 3.72 -0.12 C6.94 0.44 6.94 0.44 8.61 2.47 C10.27 6.18 10.37 9.46 10.34 13.44 C10.34 14.2 10.34 14.96 10.34 15.75 C10.35 17.35 10.34 18.95 10.33 20.55 C10.31 23 10.33 25.44 10.35 27.89 C10.35 29.45 10.34 31.01 10.34 32.57 C10.35 33.66 10.35 33.66 10.35 34.78 C10.31 37.9 10.1 40.13 8.61 42.9 C5.95 45.34 3.52 44.89 0 44.81 C-1.84 44.79 -1.84 44.79 -3.71 44.77 C-7.06 44.44 -7.06 44.44 -11.06 42.44 C-11.06 29.24 -11.06 16.04 -11.06 2.44 C-6.86 0.34 -4.62 0.08 0 0 Z " fill="#0E065A" transform="translate(582.0625,781.5625)"/>
<path d="M0 0 C0.68 -0.01 1.36 -0.01 2.06 -0.02 C4.04 0 4.04 0 7.38 0.44 C9.94 4.28 9.68 7.48 9.68 11.94 C9.68 12.77 9.68 13.6 9.69 14.46 C9.69 16.22 9.7 17.98 9.69 19.73 C9.69 22.43 9.71 25.12 9.74 27.81 C9.74 29.52 9.74 31.23 9.74 32.94 C9.75 33.74 9.76 34.55 9.77 35.38 C9.72 41 9.72 41 8.04 43.15 C5.45 45.15 3.15 44.8 -0.06 44.75 C-1.2 44.75 -2.33 44.74 -3.5 44.74 C-6.46 44.45 -8.17 44.08 -10.62 42.44 C-12.19 39.3 -11.83 35.95 -11.86 32.51 C-11.87 31.72 -11.88 30.93 -11.89 30.12 C-11.9 28.46 -11.91 26.79 -11.92 25.13 C-11.94 22.58 -11.98 20.03 -12.03 17.49 C-12.04 15.87 -12.04 14.25 -12.05 12.63 C-12.07 11.87 -12.09 11.11 -12.1 10.33 C-12.09 6.84 -11.9 4.82 -9.82 1.96 C-6.66 -0.23 -3.7 -0.11 0 0 Z " fill="#0E065A" transform="translate(546.625,749.5625)"/>
<path d="M0 0 C1.23 -0.01 2.46 -0.02 3.72 -0.03 C6.94 0.5 6.94 0.5 8.61 2.01 C10.5 5.56 10.37 8.95 10.34 12.88 C10.34 13.69 10.34 14.5 10.34 15.33 C10.35 17.03 10.34 18.74 10.33 20.45 C10.31 23.06 10.33 25.67 10.35 28.28 C10.35 29.94 10.34 31.6 10.34 33.25 C10.35 34.43 10.35 34.43 10.35 35.62 C10.28 40.98 10.28 40.98 8.61 43.49 C5.83 45.16 3.19 44.9 0 44.88 C-1.23 44.88 -2.45 44.89 -3.71 44.9 C-7.41 44.46 -8.57 44.21 -11.06 41.5 C-11.47 38.62 -11.62 36.13 -11.59 33.25 C-11.6 32.45 -11.6 31.64 -11.61 30.81 C-11.61 29.1 -11.6 27.39 -11.58 25.69 C-11.56 23.08 -11.58 20.47 -11.61 17.86 C-11.61 16.2 -11.6 14.54 -11.59 12.88 C-11.6 12.1 -11.61 11.32 -11.62 10.52 C-11.56 6.99 -11.35 4.9 -9.24 2.01 C-6.13 -0.15 -3.75 -0.03 0 0 Z " fill="#0E065A" transform="translate(546.0625,887.5)"/>
<path d="M0 0 C0.68 -0.03 1.35 -0.06 2.05 -0.09 C4.03 -0.09 4.03 -0.09 7.5 0.5 C10.84 4.52 10.95 8.49 10.93 13.5 C10.94 14.26 10.94 15.02 10.95 15.81 C10.96 17.41 10.95 19.01 10.95 20.61 C10.94 23.06 10.97 25.5 11 27.95 C11 29.51 11 31.07 11 32.63 C11.01 33.72 11.01 33.72 11.03 34.84 C10.98 38.28 10.74 40.17 8.66 42.96 C5.69 45.07 3.61 45 0 44.94 C-1.12 44.94 -2.25 44.93 -3.41 44.93 C-6.93 44.44 -8.1 44.11 -10.5 41.5 C-10.89 38.54 -11.04 35.96 -11 33 C-11 32.17 -11 31.34 -11 30.48 C-11 28.72 -10.99 26.96 -10.97 25.2 C-10.94 22.51 -10.95 19.82 -10.96 17.12 C-10.95 15.42 -10.94 13.71 -10.93 12 C-10.94 11.19 -10.94 10.39 -10.94 9.56 C-10.85 3.95 -10.85 3.95 -9.19 1.79 C-6.43 -0.32 -3.34 -0.01 0 0 Z " fill="#0E065A" transform="translate(581.5,713.5)"/>
<path d="M0 0 C0.68 -0.01 1.36 -0.01 2.06 -0.02 C4.04 0 4.04 0 7.38 0.44 C9.94 4.28 9.7 7.48 9.71 11.94 C9.72 12.77 9.72 13.6 9.73 14.46 C9.74 16.22 9.75 17.98 9.75 19.73 C9.75 22.43 9.79 25.12 9.82 27.81 C9.83 29.52 9.83 31.23 9.84 32.94 C9.85 33.74 9.86 34.55 9.88 35.38 C9.83 40.94 9.83 40.94 7.53 43.45 C4.69 44.75 2.49 44.8 -0.62 44.75 C-1.66 44.75 -2.69 44.74 -3.75 44.74 C-6.58 44.44 -8.26 43.99 -10.62 42.44 C-12.19 39.3 -11.83 35.95 -11.86 32.51 C-11.87 31.72 -11.88 30.93 -11.89 30.12 C-11.9 28.46 -11.91 26.79 -11.92 25.13 C-11.94 22.58 -11.98 20.03 -12.03 17.49 C-12.04 15.87 -12.04 14.25 -12.05 12.63 C-12.07 11.87 -12.09 11.11 -12.1 10.33 C-12.09 6.84 -11.9 4.82 -9.82 1.96 C-6.66 -0.23 -3.7 -0.11 0 0 Z " fill="#0E065A" transform="translate(546.625,614.5625)"/>
<path d="M0 0 C1.23 -0.01 2.46 -0.02 3.72 -0.03 C6.94 0.5 6.94 0.5 8.61 2.01 C10.5 5.56 10.37 8.95 10.34 12.88 C10.34 13.69 10.34 14.5 10.34 15.33 C10.35 17.03 10.34 18.74 10.33 20.45 C10.31 23.06 10.33 25.67 10.35 28.28 C10.35 29.94 10.34 31.6 10.34 33.25 C10.35 34.43 10.35 34.43 10.35 35.62 C10.28 40.98 10.28 40.98 8.6 43.49 C5.95 45.1 3.56 44.86 0.5 44.81 C-0.63 44.81 -1.77 44.8 -2.93 44.8 C-5.9 44.52 -7.61 44.14 -10.06 42.5 C-11.63 39.37 -11.27 36.01 -11.3 32.57 C-11.31 31.78 -11.32 31 -11.33 30.19 C-11.34 28.52 -11.35 26.85 -11.36 25.19 C-11.37 22.64 -11.42 20.1 -11.46 17.55 C-11.47 15.93 -11.48 14.31 -11.49 12.7 C-11.51 11.93 -11.52 11.17 -11.54 10.39 C-11.53 6.89 -11.34 4.88 -9.25 2.02 C-6.13 -0.15 -3.76 -0.03 0 0 Z " fill="#0E065A" transform="translate(618.0625,682.5)"/>
<path d="M0 0 C1.03 0.01 2.07 0.02 3.13 0.03 C6.25 0.56 6.96 1.07 8.88 3.5 C9.24 5.37 9.24 5.37 9.23 7.5 C9.23 8.29 9.24 9.09 9.24 9.91 C9.23 10.77 9.22 11.63 9.2 12.51 C9.2 13.39 9.2 14.27 9.2 15.18 C9.19 17.04 9.18 18.9 9.16 20.76 C9.13 23.62 9.12 26.48 9.11 29.34 C9.1 31.15 9.09 32.95 9.08 34.76 C9.07 36.05 9.07 36.05 9.07 37.37 C8.99 43.38 8.99 43.38 7.88 44.5 C5.24 44.63 2.64 44.69 0 44.69 C-1.1 44.71 -1.1 44.71 -2.22 44.72 C-6.06 44.74 -7.86 44.68 -11.12 42.5 C-11.45 39.72 -11.59 37.17 -11.59 34.39 C-11.6 33.58 -11.61 32.77 -11.62 31.94 C-11.63 30.23 -11.63 28.52 -11.63 26.82 C-11.63 24.21 -11.67 21.6 -11.71 18.99 C-11.72 17.33 -11.72 15.67 -11.72 14.01 C-11.74 13.23 -11.75 12.46 -11.77 11.66 C-11.72 7.61 -11.3 5.73 -8.78 2.51 C-5.59 0.09 -3.96 -0.12 0 0 Z " fill="#87EAEE" transform="translate(474.125,748.5)"/>
<path d="M0 0 C8.35 1.17 16.59 6.62 22 13 C17.72 11.43 13.82 9.33 9.88 7.06 C9.25 6.72 8.63 6.37 8 6.01 C4.97 4.28 2.28 2.66 0 0 Z " fill="#DFF8FB" transform="translate(812,538)"/>
</svg>
